<svg xmlns="http://www.w3.org/2000/svg" viewBox="0 0 100 100" fill="#000">
  <path d="M50,5C25.1,5,5,25.1,5,50s20.1,45,45,45s45-20.1,45-45S74.9,5,50,5z M50,90c-22.1,0-40-17.9-40-40s17.9-40,40-40 s40,17.9,40,40S72.1,90,50,90z"/>
  <path d="M50,15c-19.3,0-35,15.7-35,35s15.7,35,35,35s35-15.7,35-35S69.3,15,50,15z M50,80c-16.5,0-30-13.5-30-30s13.5-30,30-30 s30,13.5,30,30S66.5,80,50,80z"/>
  <rect x="48" y="25" width="4" height="50"/>
  <rect x="25" y="48" width="50" height="4"/>
  <path d="M50,40c-5.5,0-10,4.5-10,10s4.5,10,10,10s10-4.5,10-10S55.5,40,50,40z M50,55c-2.8,0-5-2.2-5-5s2.2-5,5-5s5,2.2,5,5 S52.8,55,50,55z"/>
  <path d="M68.5,31.5l-2.8,2.8c5.5,5.5,5.5,14.4,0,19.9l2.8,2.8C74.9,51.6,74.9,37.9,68.5,31.5z"/>
  <path d="M31.5,31.5c-6.4,6.4-6.4,20.1,0,25.5l2.8-2.8c-5.5-5.5-5.5-14.4,0-19.9L31.5,31.5z"/>
</svg>
